<?xml version="1.0" encoding="UTF-8"?>
<svg id="Layer_1" data-name="Layer 1" xmlns="http://www.w3.org/2000/svg" viewBox="0 0 95.1 82.69">
  <defs>
    <style>
      .cls-1 {
        fill: #f05252;
      }
    </style>
  </defs>
  <path class="cls-1" d="M0,30.86c-.03.08.03.16.11.15l1.43-.14,2.11-.21,1.62-.16,2.09-.2,1.64-.16,2.07-.2,1.67-.16,2.05-.2,1.69-.16,2.03-.2,1.71-.17,2.01-.2,1.73-.17,1.99-.19,1.75-.17,1.96-.19,1.77-.17,1.95-.19,1.79-.18,1.92-.19,1.81-.18,1.9-.19,1.84-.18,1.88-.18,3.72-.36,1.63-.16c.09,0,.13-.13.06-.19,0,0-18.34-11.65-18.33-11.65,0,0,0,0-.02,0-.15,0-1.26-.31-1.26-.31l13.31,9.99-1.86.2-1.86.18-1.86.18-1.88.18-1.84.18-1.9.19-1.81.18-1.92.19-1.79.18-1.94.19-1.77.17-1.96.19-1.75.17-1.99.19-1.73.17-2.01.2-1.71.17-2.03.2-1.69.16-2.05.2-1.63.15L14.38.66l-2.21,2.69L0,30.86Z"/>
  <polygon class="cls-1" points="29.04 13.8 25.6 12.84 28.21 14.8 34.3 20.59 32.67 20.73 31.47 20.85 30.26 20.97 29.08 21.09 27.85 21.2 26.68 21.32 25.45 21.44 24.29 21.55 23.04 21.68 21.89 21.79 20.63 21.91 19.5 22.02 18.22 22.15 17.11 22.25 15.81 22.38 14.71 22.49 13.4 22.62 12.32 22.72 11 22.85 10.51 22.91 16.13 2.57 23.26 7.63 15.46 0 14.82 1.85 14.82 1.85 14.81 1.88 14.46 2.93 14.19 3.72 13.97 4.34 13.83 4.75 13.55 5.58 13.54 5.59 13.54 5.6 13.19 6.61 12.91 7.45 12.57 8.44 12.27 9.31 11.94 10.28 11.94 10.29 11.93 10.3 11.63 11.19 11.58 11.34 11.31 12.13 11 13.04 10.99 13.05 10.99 13.06 10.68 13.98 10.36 14.91 10.05 15.81 10.05 15.82 10.05 15.82 9.72 16.78 9.42 17.67 9.08 18.64 8.79 19.5 8.68 19.83 8.44 20.51 8.16 21.35 7.81 22.37 7.7 22.7 7.53 23.19 7.37 23.66 7.17 24.24 6.46 26.24 40.44 22.97 29.04 13.8"/>
</svg>